<mxfile host="app.diagrams.net" agent="Mozilla/5.0 (Windows NT 10.0; Win64; x64) AppleWebKit/537.36 (KHTML, like Gecko) Chrome/128.0.0.0 Safari/537.36" version="24.7.10">
  <diagram name="Page-1" id="zLaHcPkFcdJssfJy7Qkf">
    <mxGraphModel dx="1221" dy="725" grid="1" gridSize="10" guides="1" tooltips="1" connect="1" arrows="1" fold="1" page="1" pageScale="1" pageWidth="850" pageHeight="1100" math="0" shadow="0">
      <root>
        <mxCell id="0" />
        <mxCell id="1" parent="0" />
        <mxCell id="5nwZ6E_h-Gv6IRQLqwNt-1" value="Usuario" style="shape=umlActor;verticalLabelPosition=bottom;verticalAlign=top;html=1;outlineConnect=0;" vertex="1" parent="1">
          <mxGeometry x="10" y="60" width="110" height="150" as="geometry" />
        </mxCell>
        <mxCell id="5nwZ6E_h-Gv6IRQLqwNt-2" value="RESTABLECER CONTRASENA" style="text;html=1;align=center;verticalAlign=middle;resizable=0;points=[];autosize=1;strokeColor=none;fillColor=none;" vertex="1" parent="1">
          <mxGeometry x="15" y="15" width="200" height="30" as="geometry" />
        </mxCell>
        <mxCell id="5nwZ6E_h-Gv6IRQLqwNt-3" value="" style="endArrow=classic;html=1;rounded=0;" edge="1" parent="1" source="5nwZ6E_h-Gv6IRQLqwNt-1">
          <mxGeometry width="50" height="50" relative="1" as="geometry">
            <mxPoint x="400" y="190" as="sourcePoint" />
            <mxPoint x="180" y="135" as="targetPoint" />
          </mxGeometry>
        </mxCell>
        <mxCell id="5nwZ6E_h-Gv6IRQLqwNt-4" value="introduce el nombre de usuario en el formulario de restablecimiento" style="ellipse;whiteSpace=wrap;html=1;" vertex="1" parent="1">
          <mxGeometry x="180" y="100" width="120" height="80" as="geometry" />
        </mxCell>
        <mxCell id="5nwZ6E_h-Gv6IRQLqwNt-5" value="" style="endArrow=classic;html=1;rounded=0;exitX=1;exitY=0.5;exitDx=0;exitDy=0;" edge="1" parent="1" source="5nwZ6E_h-Gv6IRQLqwNt-4" target="5nwZ6E_h-Gv6IRQLqwNt-6">
          <mxGeometry width="50" height="50" relative="1" as="geometry">
            <mxPoint x="400" y="190" as="sourcePoint" />
            <mxPoint x="350" y="140" as="targetPoint" />
          </mxGeometry>
        </mxCell>
        <mxCell id="5nwZ6E_h-Gv6IRQLqwNt-6" value="El usuario resuelve un CATPCHA (O comprobación similar" style="rounded=0;whiteSpace=wrap;html=1;" vertex="1" parent="1">
          <mxGeometry x="350" y="110" width="120" height="60" as="geometry" />
        </mxCell>
        <mxCell id="5nwZ6E_h-Gv6IRQLqwNt-7" value="" style="endArrow=classic;html=1;rounded=0;exitX=0.5;exitY=1;exitDx=0;exitDy=0;" edge="1" parent="1" source="5nwZ6E_h-Gv6IRQLqwNt-6">
          <mxGeometry width="50" height="50" relative="1" as="geometry">
            <mxPoint x="400" y="400" as="sourcePoint" />
            <mxPoint x="410" y="190" as="targetPoint" />
          </mxGeometry>
        </mxCell>
        <mxCell id="5nwZ6E_h-Gv6IRQLqwNt-8" value="Avisar al usuario que se ha enviado un correo electrónico tanto si existe una cuenta tanto si no." style="ellipse;whiteSpace=wrap;html=1;" vertex="1" parent="1">
          <mxGeometry x="350" y="190" width="120" height="80" as="geometry" />
        </mxCell>
        <mxCell id="5nwZ6E_h-Gv6IRQLqwNt-9" value="La cuenta existe para el nombre de usuario?" style="rhombus;whiteSpace=wrap;html=1;" vertex="1" parent="1">
          <mxGeometry x="370" y="290" width="80" height="80" as="geometry" />
        </mxCell>
        <mxCell id="5nwZ6E_h-Gv6IRQLqwNt-10" value="" style="endArrow=classic;html=1;rounded=0;exitX=0.5;exitY=1;exitDx=0;exitDy=0;" edge="1" parent="1" source="5nwZ6E_h-Gv6IRQLqwNt-8">
          <mxGeometry width="50" height="50" relative="1" as="geometry">
            <mxPoint x="400" y="400" as="sourcePoint" />
            <mxPoint x="410" y="290" as="targetPoint" />
          </mxGeometry>
        </mxCell>
        <mxCell id="5nwZ6E_h-Gv6IRQLqwNt-11" value="si" style="endArrow=classic;html=1;rounded=0;exitX=1;exitY=0.5;exitDx=0;exitDy=0;" edge="1" parent="1" source="5nwZ6E_h-Gv6IRQLqwNt-9">
          <mxGeometry relative="1" as="geometry">
            <mxPoint x="370" y="370" as="sourcePoint" />
            <mxPoint x="510" y="330" as="targetPoint" />
          </mxGeometry>
        </mxCell>
        <mxCell id="5nwZ6E_h-Gv6IRQLqwNt-12" value="SI" style="edgeLabel;resizable=0;html=1;;align=center;verticalAlign=middle;" connectable="0" vertex="1" parent="5nwZ6E_h-Gv6IRQLqwNt-11">
          <mxGeometry relative="1" as="geometry" />
        </mxCell>
        <mxCell id="5nwZ6E_h-Gv6IRQLqwNt-13" value="Eliminar los datos de la clave del usuario." style="ellipse;whiteSpace=wrap;html=1;" vertex="1" parent="1">
          <mxGeometry x="510" y="290" width="120" height="80" as="geometry" />
        </mxCell>
        <mxCell id="5nwZ6E_h-Gv6IRQLqwNt-14" value="" style="endArrow=classic;html=1;rounded=0;" edge="1" parent="1" target="5nwZ6E_h-Gv6IRQLqwNt-15">
          <mxGeometry width="50" height="50" relative="1" as="geometry">
            <mxPoint x="630" y="330" as="sourcePoint" />
            <mxPoint x="680" y="330" as="targetPoint" />
          </mxGeometry>
        </mxCell>
        <mxCell id="5nwZ6E_h-Gv6IRQLqwNt-15" value="Enviar correo electrónico con URL de restablecimiento de clave." style="ellipse;whiteSpace=wrap;html=1;" vertex="1" parent="1">
          <mxGeometry x="680" y="290" width="120" height="80" as="geometry" />
        </mxCell>
        <mxCell id="5nwZ6E_h-Gv6IRQLqwNt-16" value="" style="endArrow=classic;html=1;rounded=0;exitX=0;exitY=0.5;exitDx=0;exitDy=0;entryX=0.436;entryY=-0.004;entryDx=0;entryDy=0;entryPerimeter=0;" edge="1" parent="1" source="5nwZ6E_h-Gv6IRQLqwNt-9" target="5nwZ6E_h-Gv6IRQLqwNt-28">
          <mxGeometry relative="1" as="geometry">
            <mxPoint x="370" y="370" as="sourcePoint" />
            <mxPoint x="80" y="560" as="targetPoint" />
            <Array as="points">
              <mxPoint x="80" y="330" />
            </Array>
          </mxGeometry>
        </mxCell>
        <mxCell id="5nwZ6E_h-Gv6IRQLqwNt-17" value="NO" style="edgeLabel;resizable=0;html=1;;align=center;verticalAlign=middle;" connectable="0" vertex="1" parent="5nwZ6E_h-Gv6IRQLqwNt-16">
          <mxGeometry relative="1" as="geometry" />
        </mxCell>
        <mxCell id="5nwZ6E_h-Gv6IRQLqwNt-18" value="" style="endArrow=classic;html=1;rounded=0;exitX=0.5;exitY=1;exitDx=0;exitDy=0;" edge="1" parent="1" source="5nwZ6E_h-Gv6IRQLqwNt-15" target="5nwZ6E_h-Gv6IRQLqwNt-19">
          <mxGeometry width="50" height="50" relative="1" as="geometry">
            <mxPoint x="400" y="410" as="sourcePoint" />
            <mxPoint x="670" y="460" as="targetPoint" />
            <Array as="points">
              <mxPoint x="740" y="460" />
            </Array>
          </mxGeometry>
        </mxCell>
        <mxCell id="5nwZ6E_h-Gv6IRQLqwNt-19" value="El usuario accede a la URL de restablecimiento" style="ellipse;whiteSpace=wrap;html=1;" vertex="1" parent="1">
          <mxGeometry x="600" y="420" width="120" height="80" as="geometry" />
        </mxCell>
        <mxCell id="5nwZ6E_h-Gv6IRQLqwNt-20" value="" style="endArrow=classic;html=1;rounded=0;exitX=0;exitY=0.375;exitDx=0;exitDy=0;exitPerimeter=0;" edge="1" parent="1" source="5nwZ6E_h-Gv6IRQLqwNt-19" target="5nwZ6E_h-Gv6IRQLqwNt-21">
          <mxGeometry width="50" height="50" relative="1" as="geometry">
            <mxPoint x="400" y="410" as="sourcePoint" />
            <mxPoint x="550" y="450" as="targetPoint" />
          </mxGeometry>
        </mxCell>
        <mxCell id="5nwZ6E_h-Gv6IRQLqwNt-21" value="Reiniciar clave?" style="rhombus;whiteSpace=wrap;html=1;" vertex="1" parent="1">
          <mxGeometry x="510" y="410" width="80" height="80" as="geometry" />
        </mxCell>
        <mxCell id="5nwZ6E_h-Gv6IRQLqwNt-22" value="NO" style="endArrow=classic;html=1;rounded=0;exitX=0;exitY=0.5;exitDx=0;exitDy=0;" edge="1" parent="1" source="5nwZ6E_h-Gv6IRQLqwNt-21">
          <mxGeometry relative="1" as="geometry">
            <mxPoint x="370" y="390" as="sourcePoint" />
            <mxPoint x="310" y="540" as="targetPoint" />
            <Array as="points">
              <mxPoint x="310" y="450" />
            </Array>
          </mxGeometry>
        </mxCell>
        <mxCell id="5nwZ6E_h-Gv6IRQLqwNt-23" value="NO" style="edgeLabel;resizable=0;html=1;;align=center;verticalAlign=middle;" connectable="0" vertex="1" parent="5nwZ6E_h-Gv6IRQLqwNt-22">
          <mxGeometry relative="1" as="geometry" />
        </mxCell>
        <mxCell id="5nwZ6E_h-Gv6IRQLqwNt-24" value="" style="endArrow=classic;html=1;rounded=0;exitX=0.5;exitY=1;exitDx=0;exitDy=0;" edge="1" parent="1" source="5nwZ6E_h-Gv6IRQLqwNt-21">
          <mxGeometry relative="1" as="geometry">
            <mxPoint x="370" y="390" as="sourcePoint" />
            <mxPoint x="550" y="540" as="targetPoint" />
          </mxGeometry>
        </mxCell>
        <mxCell id="5nwZ6E_h-Gv6IRQLqwNt-25" value="SI" style="edgeLabel;resizable=0;html=1;;align=center;verticalAlign=middle;" connectable="0" vertex="1" parent="5nwZ6E_h-Gv6IRQLqwNt-24">
          <mxGeometry relative="1" as="geometry" />
        </mxCell>
        <mxCell id="5nwZ6E_h-Gv6IRQLqwNt-26" value="Aconsejar al usuario que reinicie el proceso" style="ellipse;whiteSpace=wrap;html=1;" vertex="1" parent="1">
          <mxGeometry x="250" y="540" width="120" height="80" as="geometry" />
        </mxCell>
        <mxCell id="5nwZ6E_h-Gv6IRQLqwNt-27" value="Permitir el cambio de clave." style="ellipse;whiteSpace=wrap;html=1;" vertex="1" parent="1">
          <mxGeometry x="490" y="540" width="120" height="80" as="geometry" />
        </mxCell>
        <mxCell id="5nwZ6E_h-Gv6IRQLqwNt-28" value="FIN" style="ellipse;whiteSpace=wrap;html=1;" vertex="1" parent="1">
          <mxGeometry x="30" y="630" width="120" height="80" as="geometry" />
        </mxCell>
        <mxCell id="5nwZ6E_h-Gv6IRQLqwNt-29" value="" style="endArrow=classic;html=1;rounded=0;exitX=0.5;exitY=1;exitDx=0;exitDy=0;" edge="1" parent="1" source="5nwZ6E_h-Gv6IRQLqwNt-27" target="5nwZ6E_h-Gv6IRQLqwNt-30">
          <mxGeometry width="50" height="50" relative="1" as="geometry">
            <mxPoint x="400" y="410" as="sourcePoint" />
            <mxPoint x="480" y="690" as="targetPoint" />
            <Array as="points">
              <mxPoint x="550" y="680" />
            </Array>
          </mxGeometry>
        </mxCell>
        <mxCell id="5nwZ6E_h-Gv6IRQLqwNt-30" value="Correo electrónico de confirmación de cambio de clave exitoso" style="ellipse;whiteSpace=wrap;html=1;" vertex="1" parent="1">
          <mxGeometry x="420" y="640" width="120" height="80" as="geometry" />
        </mxCell>
        <mxCell id="5nwZ6E_h-Gv6IRQLqwNt-31" value="" style="endArrow=classic;html=1;rounded=0;exitX=0;exitY=0.5;exitDx=0;exitDy=0;entryX=1.031;entryY=0.604;entryDx=0;entryDy=0;entryPerimeter=0;" edge="1" parent="1" source="5nwZ6E_h-Gv6IRQLqwNt-30" target="5nwZ6E_h-Gv6IRQLqwNt-28">
          <mxGeometry width="50" height="50" relative="1" as="geometry">
            <mxPoint x="400" y="410" as="sourcePoint" />
            <mxPoint x="450" y="360" as="targetPoint" />
          </mxGeometry>
        </mxCell>
        <mxCell id="5nwZ6E_h-Gv6IRQLqwNt-32" value="" style="endArrow=none;html=1;rounded=0;entryX=0.5;entryY=1;entryDx=0;entryDy=0;" edge="1" parent="1" target="5nwZ6E_h-Gv6IRQLqwNt-26">
          <mxGeometry width="50" height="50" relative="1" as="geometry">
            <mxPoint x="310" y="680" as="sourcePoint" />
            <mxPoint x="450" y="440" as="targetPoint" />
          </mxGeometry>
        </mxCell>
      </root>
    </mxGraphModel>
  </diagram>
</mxfile>
